<?xml version="1.0" encoding="UTF-8"?>
<svg width="40" height="40" viewBox="0 0 40 40" fill="none" xmlns="http://www.w3.org/2000/svg">
  <!-- Background circle with gradient -->
  <defs>
    <linearGradient id="logoGradient" x1="0%" y1="0%" x2="100%" y2="100%">
      <stop offset="0%" style="stop-color:#2b77e6;stop-opacity:1" />
      <stop offset="100%" style="stop-color:#4285f4;stop-opacity:1" />
    </linearGradient>
  </defs>
  
  <!-- Main circle background -->
  <circle cx="20" cy="20" r="18" fill="url(#logoGradient)" stroke="#1a365d" stroke-width="2"/>
  
  <!-- Real Estate "R" -->
  <path d="M8 12 L8 28 L11 28 L11 21 L15 21 L15 28 L18 28 L18 21 L16 19 L18 12 L15 12 L15 17 L11 17 L11 12 Z M11 15 L15 15 L15 17 L11 17 Z" fill="white"/>
  
  <!-- AI-inspired "A" -->
  <path d="M20 28 L24 12 L27 12 L31 28 L28 28 L27.2 25 L23.8 25 L23 28 Z M24.4 22 L26.6 22 L25.5 18 Z" fill="white"/>
  
  <!-- Small accent dots representing AI/data -->
  <circle cx="32" cy="12" r="1.5" fill="#f59e0b"/>
  <circle cx="30" cy="8" r="1" fill="#f59e0b" opacity="0.7"/>
  <circle cx="35" cy="10" r="0.8" fill="#f59e0b" opacity="0.5"/>
</svg>