<?xml version="1.0" encoding="UTF-8"?>
<svg width="40" height="40" viewBox="0 0 40 40" fill="none" xmlns="http://www.w3.org/2000/svg">
  <!-- Background circle with gradient -->
  <defs>
    <linearGradient id="logoGradient" x1="0%" y1="0%" x2="100%" y2="100%">
      <stop offset="0%" style="stop-color:#2b77e6;stop-opacity:1" />
      <stop offset="100%" style="stop-color:#4285f4;stop-opacity:1" />
    </linearGradient>
  </defs>
  
  <!-- Main circle background -->
  <circle cx="20" cy="20" r="18" fill="url(#logoGradient)" stroke="#1a365d" stroke-width="2"/>
  
  <!-- Real Estate "R" -->
  <rect x="8" y="12" width="3" height="16" fill="white" rx="1"/>
  <rect x="8" y="12" width="8" height="3" fill="white" rx="1"/>
  <rect x="8" y="18" width="6" height="2.5" fill="white" rx="1"/>
  <rect x="13.5" y="12" width="2.5" height="6" fill="white" rx="1"/>
  <path d="M14 21 L18 28 L15 28 L12 22" stroke="white" stroke-width="2.5" stroke-linecap="round" fill="none"/>
  
  <!-- AI-inspired "A" -->
  <path d="M20 28 L24 12 L27 12 L31 28 L28 28 L27.2 25 L23.8 25 L23 28 Z M24.4 22 L26.6 22 L25.5 18 Z" fill="white"/>
  
  <!-- Small accent dots representing AI/data -->
  <circle cx="32" cy="12" r="1.5" fill="#f59e0b"/>
  <circle cx="30" cy="8" r="1" fill="#f59e0b" opacity="0.7"/>
  <circle cx="35" cy="10" r="0.8" fill="#f59e0b" opacity="0.5"/>
</svg>